<?xml version="1.0" encoding="utf-8" standalone="no"?>
<!DOCTYPE svg PUBLIC "-//W3C//DTD SVG 1.1//EN"
  "http://www.w3.org/Graphics/SVG/1.1/DTD/svg11.dtd">
<!-- Created with matplotlib (http://matplotlib.org/) -->
<svg height="216pt" version="1.1" viewBox="0 0 463 216" width="463pt" xmlns="http://www.w3.org/2000/svg" xmlns:xlink="http://www.w3.org/1999/xlink">
 <defs>
  <style type="text/css">
*{stroke-linecap:butt;stroke-linejoin:round;}
  </style>
 </defs>
 <g id="figure_1">
  <g id="patch_1">
   <path d="
M0 216.022
L463.168 216.022
L463.168 0
L0 0
z
" style="fill:none;"/>
  </g>
  <g id="axes_1">
   <g id="line2d_1">
    <path d="
M39.5871 55.3814
L70.5464 55.3814
L70.5464 9.3192
L114.774 9.3192
L114.774 55.3814
L141.31 55.3814
L141.31 9.3192
L229.766 9.3192
L229.766 55.3814
L256.302 55.3814
L256.302 9.3192
L344.757 9.3192
L344.757 55.3814
L371.294 55.3814
L371.294 9.3192
L415.521 9.3192
L415.521 55.3814
L455.326 55.3814
L455.326 55.3814" style="fill:none;stroke:#ab4cee;stroke-linecap:round;stroke-width:1.5;"/>
   </g>
  </g>
  <g id="axes_2">
   <g id="text_1">
    <!-- G$_\mathsf{Z}$ -->
    <defs>
     <path d="
M59.5156 10.4062
L59.5156 29.9844
L43.4062 29.9844
L43.4062 38.0938
L69.2812 38.0938
L69.2812 6.78125
Q63.5781 2.73438 56.6875 0.65625
Q49.8125 -1.42188 42 -1.42188
Q24.9062 -1.42188 15.25 8.5625
Q5.60938 18.5625 5.60938 36.375
Q5.60938 54.25 15.25 64.2344
Q24.9062 74.2188 42 74.2188
Q49.125 74.2188 55.5469 72.4531
Q61.9688 70.7031 67.3906 67.2812
L67.3906 56.7812
Q61.9219 61.4219 55.7656 63.7656
Q49.6094 66.1094 42.8281 66.1094
Q29.4375 66.1094 22.7188 58.6406
Q16.0156 51.1719 16.0156 36.375
Q16.0156 21.625 22.7188 14.1562
Q29.4375 6.6875 42.8281 6.6875
Q48.0469 6.6875 52.1406 7.59375
Q56.25 8.5 59.5156 10.4062" id="BitstreamVeraSans-Roman-47"/>
     <path d="
M60.2969 7.40625
L59.5 0
L2.79688 0
L2.79688 2.5
L45.4062 58.7969
L6.20312 58.7969
L7 66.2031
L59.7969 66.2031
L59.7969 64.0938
L17 7.40625
z
" id="STIXGeneral-Regular-1d5b9"/>
    </defs>
    <g style="fill:#ab4cee;" transform="translate(12.8057696691 35.7903084265)scale(0.16 -0.16)">
     <use transform="translate(0.0 0.78125)" xlink:href="#BitstreamVeraSans-Roman-47"/>
     <use transform="translate(77.490234375 -30.71875)scale(0.7)" xlink:href="#STIXGeneral-Regular-1d5b9"/>
    </g>
   </g>
  </g>
  <g id="axes_3">
   <g id="line2d_2">
    <path d="
M39.5871 136.566
L70.5464 136.566
L70.5464 90.5039
L114.774 90.5039
L114.774 136.566
L141.31 136.566
L141.31 90.5039
L229.766 90.5039
L229.766 136.566
L256.302 136.566
L256.302 90.5039
L344.757 90.5039
L344.757 136.566
L371.294 136.566
L371.294 90.5039
L415.521 90.5039
L415.521 136.566
L455.326 136.566
L455.326 136.566" style="fill:none;stroke:#006c98;stroke-linecap:round;stroke-width:1.5;"/>
   </g>
  </g>
  <g id="axes_4">
   <g id="text_2">
    <!-- $\frac{\tau}{2}$ -->
    <defs>
     <path d="
M19.1875 8.29688
L53.6094 8.29688
L53.6094 0
L7.32812 0
L7.32812 8.29688
Q12.9375 14.1094 22.625 23.8906
Q32.3281 33.6875 34.8125 36.5312
Q39.5469 41.8438 41.4219 45.5312
Q43.3125 49.2188 43.3125 52.7812
Q43.3125 58.5938 39.2344 62.25
Q35.1562 65.9219 28.6094 65.9219
Q23.9688 65.9219 18.8125 64.3125
Q13.6719 62.7031 7.8125 59.4219
L7.8125 69.3906
Q13.7656 71.7812 18.9375 73
Q24.125 74.2188 28.4219 74.2188
Q39.75 74.2188 46.4844 68.5469
Q53.2188 62.8906 53.2188 53.4219
Q53.2188 48.9219 51.5312 44.8906
Q49.8594 40.875 45.4062 35.4062
Q44.1875 33.9844 37.6406 27.2188
Q31.1094 20.4531 19.1875 8.29688" id="BitstreamVeraSans-Roman-32"/>
     <path d="
M41 38.2031
L25.9062 38.2031
Q25.2969 33.5 25.2969 17.5938
Q25.2969 14.7031 25.4375 12.7969
Q25.5938 10.9062 26.1406 9.59375
Q26.7031 8.29688 27.25 7.59375
Q27.7969 6.90625 29.1406 6.54688
Q30.5 6.20312 31.6406 6.14062
Q32.7969 6.09375 35.2031 6.09375
L35.2031 4.40625
L32.7969 -1
Q29.2969 -1 27 -0.546875
Q24.7031 -0.09375 22.25 1.25
Q19.7969 2.59375 18.5938 5.64062
Q17.4062 8.70312 17.4062 13.5
Q17.4062 29.0938 18.0938 38.2031
L15.5 38.2031
Q8.59375 38.2031 6.5 28.0938
L0.203125 30.5
Q2.20312 39.2031 6.45312 42.25
Q10.7031 45.2969 18.0938 45.2969
L41 45.2969
z
" id="STIXNonUnicode-Regular-e1a9"/>
    </defs>
    <g style="fill:#006c98;" transform="translate(88.0201659652 75.9026370281)scale(0.16 -0.16)">
     <use transform="translate(7.0 45.2921875)scale(0.7)" xlink:href="#STIXNonUnicode-Regular-e1a9"/>
     <use transform="translate(0.0 -38.6109375)scale(0.7)" xlink:href="#BitstreamVeraSans-Roman-32"/>
     <path d="
M0 19.5922
L0 25.8422
L44.5361 25.8422
L44.5361 19.5922
L0 19.5922
z
"/>
    </g>
   </g>
   <g id="text_3">
    <!-- $\tau$ -->
    <g style="fill:#006c98;" transform="translate(182.097985505 77.3576370281)scale(0.16 -0.16)">
     <use transform="translate(0.0 0.703125)" xlink:href="#STIXNonUnicode-Regular-e1a9"/>
    </g>
   </g>
   <g id="text_4">
    <!-- $\tau$ -->
    <g style="fill:#006c98;" transform="translate(297.089571601 77.3576370281)scale(0.16 -0.16)">
     <use transform="translate(0.0 0.703125)" xlink:href="#STIXNonUnicode-Regular-e1a9"/>
    </g>
   </g>
   <g id="text_5">
    <!-- $\frac{\tau}{2}$ -->
    <g style="fill:#006c98;" transform="translate(388.76739114 75.9026370281)scale(0.16 -0.16)">
     <use transform="translate(7.0 45.2921875)scale(0.7)" xlink:href="#STIXNonUnicode-Regular-e1a9"/>
     <use transform="translate(0.0 -38.6109375)scale(0.7)" xlink:href="#BitstreamVeraSans-Roman-32"/>
     <path d="
M0 19.5922
L0 25.8422
L44.5361 25.8422
L44.5361 19.5922
L0 19.5922
z
"/>
    </g>
   </g>
  </g>
  <g id="axes_5">
   <g id="text_6">
    <!-- B$_\mathsf{Z}$ -->
    <defs>
     <path d="
M19.6719 34.8125
L19.6719 8.10938
L35.5 8.10938
Q43.4531 8.10938 47.2812 11.4062
Q51.125 14.7031 51.125 21.4844
Q51.125 28.3281 47.2812 31.5625
Q43.4531 34.8125 35.5 34.8125
z

M19.6719 64.7969
L19.6719 42.8281
L34.2812 42.8281
Q41.5 42.8281 45.0312 45.5312
Q48.5781 48.25 48.5781 53.8125
Q48.5781 59.3281 45.0312 62.0625
Q41.5 64.7969 34.2812 64.7969
z

M9.8125 72.9062
L35.0156 72.9062
Q46.2969 72.9062 52.3906 68.2188
Q58.5 63.5312 58.5 54.8906
Q58.5 48.1875 55.375 44.2344
Q52.25 40.2812 46.1875 39.3125
Q53.4688 37.75 57.5 32.7812
Q61.5312 27.8281 61.5312 20.4062
Q61.5312 10.6406 54.8906 5.3125
Q48.25 0 35.9844 0
L9.8125 0
z
" id="BitstreamVeraSans-Roman-42"/>
    </defs>
    <g style="fill:#006c98;" transform="translate(13.5257696691 116.81496563)scale(0.16 -0.16)">
     <use transform="translate(0.0 0.09375)" xlink:href="#BitstreamVeraSans-Roman-42"/>
     <use transform="translate(68.603515625 -31.40625)scale(0.7)" xlink:href="#STIXGeneral-Regular-1d5b9"/>
    </g>
   </g>
  </g>
  <g id="axes_6">
   <g id="line2d_3">
    <path d="
M39.5871 199.959
L57.2781 199.959
L57.2781 153.897
L70.5464 153.897
L70.5464 199.959
L114.774 199.959
L114.774 153.897
L141.31 153.897
L141.31 199.959
L229.766 199.959
L229.766 153.897
L256.302 153.897
L256.302 199.959
L344.757 199.959
L344.757 153.897
L371.294 153.897
L371.294 199.959
L415.521 199.959
L415.521 153.897
L428.789 153.897
L428.789 199.959
L455.326 199.959
L455.326 199.959" style="fill:none;stroke:#007935;stroke-linecap:round;stroke-width:1.5;"/>
   </g>
   <g id="line2d_4">
    <path d="
M144.919 205.678
L138.657 205.678
L138.657 3.6
L144.919 3.6" style="fill:none;stroke:#d20202;stroke-linecap:round;stroke-width:1.5;"/>
   </g>
   <g id="line2d_5">
    <path d="
M341.148 205.678
L347.411 205.678
L347.411 3.6
L341.148 3.6" style="fill:none;stroke:#d20202;stroke-linecap:round;stroke-width:1.5;"/>
   </g>
   <g id="text_7">
    <!-- $\frac{\pi}{2}$ -->
    <defs>
     <path d="
M56.5938 44.5781
L47.7031 44.5781
L42.5781 20.7969
Q41.8438 17.1875 41.4688 14.9375
Q41.1094 12.7031 41.1094 11.625
Q41.1094 8.79688 42.25 7.59375
Q43.4062 6.39062 46.0938 6.39062
Q46.9219 6.39062 48.0469 6.51562
Q49.1719 6.64062 50.9844 6.89062
L49.5156 0
Q48.0469 -0.390625 46.7031 -0.578125
Q45.3594 -0.78125 44.0938 -0.78125
Q38.3281 -0.78125 35.375 1.70312
Q32.4219 4.20312 32.4219 9.07812
Q32.4219 11.3281 32.9375 14.8438
Q33.4531 18.3594 35.1094 26.2188
L39.0156 44.5781
L23.0938 44.5781
L13.625 0
L4.78125 0
L14.3125 44.5781
L12.3125 44.5781
Q9.67188 44.5781 8.20312 43.0156
Q6.73438 41.4531 6.29688 38.0938
L-1.51562 38.0938
Q-0.140625 46.1875 3.34375 49.2344
Q6.84375 52.2969 14.8906 52.2969
L58.2969 52.2969
z
" id="BitstreamVeraSans-Roman-3c0"/>
    </defs>
    <g style="fill:#007935;" transform="translate(60.4322694411 179.388091574)scale(0.12 -0.12)">
     <use transform="translate(2.0 44.3921875)scale(0.7)" xlink:href="#BitstreamVeraSans-Roman-3c0"/>
     <use transform="translate(0.0 -39.3578125)scale(0.7)" xlink:href="#BitstreamVeraSans-Roman-32"/>
     <path d="
M0 18.8453
L0 25.0953
L44.5361 25.0953
L44.5361 18.8453
L0 18.8453
z
"/>
    </g>
   </g>
   <g id="text_8">
    <!-- $\pi$ -->
    <g style="fill:#007935;" transform="translate(124.502192456 180.239341574)scale(0.12 -0.12)">
     <use transform="translate(0.0 0.703125)" xlink:href="#BitstreamVeraSans-Roman-3c0"/>
    </g>
   </g>
   <g id="text_9">
    <!-- $\pi$ -->
    <g style="fill:#007935;" transform="translate(239.493778553 180.239341574)scale(0.12 -0.12)">
     <use transform="translate(0.0 0.703125)" xlink:href="#BitstreamVeraSans-Roman-3c0"/>
    </g>
   </g>
   <g id="text_10">
    <!-- $\pi$ -->
    <g style="fill:#007935;" transform="translate(354.485364649 180.239341574)scale(0.12 -0.12)">
     <use transform="translate(0.0 0.703125)" xlink:href="#BitstreamVeraSans-Roman-3c0"/>
    </g>
   </g>
   <g id="text_11">
    <!-- $\frac{\pi}{2}$ -->
    <g style="fill:#007935;" transform="translate(418.675287664 179.388091574)scale(0.12 -0.12)">
     <use transform="translate(2.0 44.3921875)scale(0.7)" xlink:href="#BitstreamVeraSans-Roman-3c0"/>
     <use transform="translate(0.0 -39.3578125)scale(0.7)" xlink:href="#BitstreamVeraSans-Roman-32"/>
     <path d="
M0 18.8453
L0 25.0953
L44.5361 25.0953
L44.5361 18.8453
L0 18.8453
z
"/>
    </g>
   </g>
   <g id="text_12">
    <!-- N -->
    <defs>
     <path d="
M9.8125 72.9062
L23.0938 72.9062
L55.4219 11.9219
L55.4219 72.9062
L64.9844 72.9062
L64.9844 0
L51.7031 0
L19.3906 60.9844
L19.3906 0
L9.8125 0
z
" id="BitstreamVeraSans-Roman-4e"/>
    </defs>
    <g style="fill:#d20202;" transform="translate(351.585835828 210.34307125)scale(0.09996 -0.09996)">
     <use xlink:href="#BitstreamVeraSans-Roman-4e"/>
    </g>
   </g>
  </g>
  <g id="axes_7">
   <g id="text_13">
    <!-- B$_\mathsf{X}$ -->
    <defs>
     <path d="
M66.9062 0
L56.4062 0
L34.9062 28.2969
L13.5938 0
L3.09375 0
L29.5938 34.9062
L5.59375 66.2031
L16.2031 66.2031
L34.9062 41.4062
L53.4062 66.2031
L64.0938 66.2031
L40.2031 34.9062
z
" id="STIXGeneral-Regular-1d5b7"/>
    </defs>
    <g style="fill:#007935;" transform="translate(13.2057696691 180.208091574)scale(0.16 -0.16)">
     <use transform="translate(0.0 0.09375)" xlink:href="#BitstreamVeraSans-Roman-42"/>
     <use transform="translate(68.603515625 -31.40625)scale(0.7)" xlink:href="#STIXGeneral-Regular-1d5b7"/>
    </g>
   </g>
  </g>
 </g>
</svg>
